{
  "accessors": [
    {
      "bufferView": 2,
      "componentType": 5126,
      "count": 116,
      "max": [
        0.11593242734670639,
        0.7904661893844604,
        0.7777343988418579
      ],
      "min": [
        -0.11593242734670639,
        -0.19406378269195557,
        -2.317110300064087
      ],
      "type": "VEC3"
    },
    {
      "bufferView": 2,
      "byteOffset": 1392,
      "componentType": 5126,
      "count": 116,
      "max": [
        0.9999951124191284,
        1.0,
        1.0
      ],
      "min": [
        -0.9999951124191284,
        -1.0,
        -1.0
      ],
      "type": "VEC3"
    },
    {
      "bufferView": 1,
      "componentType": 5126,
      "count": 116,
      "max": [
        0.9689922332763672,
        0.9614954590797424
      ],
      "min": [
        0.05903959274291992,
        0.048356205224990845
      ],
      "type": "VEC2"
    },
    {
      "bufferView": 0,
      "componentType": 5125,
      "count": 312,
      "type": "SCALAR"
    },
    {
      "bufferView": 2,
      "byteOffset": 2784,
      "componentType": 5126,
      "count": 4019,
      "max": [
        2.1123154163360596,
        3.103039503097534,
        2.293856382369995
      ],
      "min": [
        -2.3073527812957764,
        -3.744216203689575,
        -2.2812163829803467
      ],
      "type": "VEC3"
    },
    {
      "bufferView": 2,
      "byteOffset": 51012,
      "componentType": 5126,
      "count": 4019,
      "max": [
        1.0,
        1.0,
        0.9999866485595703
      ],
      "min": [
        -1.0,
        -1.0,
        -0.999791145324707
      ],
      "type": "VEC3"
    },
    {
      "bufferView": 1,
      "byteOffset": 928,
      "componentType": 5126,
      "count": 4019,
      "max": [
        0.9801145195960999,
        0.9740911722183228
      ],
      "min": [
        0.11980705708265305,
        0.017198801040649414
      ],
      "type": "VEC2"
    },
    {
      "bufferView": 0,
      "byteOffset": 1248,
      "componentType": 5125,
      "count": 17718,
      "type": "SCALAR"
    }
  ],
  "asset": {
    "extras": {
      "author": "nissato (https://sketchfab.com/Nissato)",
      "license": "CC-BY-4.0 (http://creativecommons.org/licenses/by/4.0/)",
      "source": "https://sketchfab.com/3d-models/ice-bear-we-bare-bears-77f6d43d4dc740dfb8a500743676a18c",
      "title": "Ice Bear (We Bare Bears)"
    },
    "generator": "Sketchfab-12.66.0",
    "version": "2.0"
  },
  "bufferViews": [
    {
      "buffer": 0,
      "byteLength": 72120,
      "name": "floatBufferViews",
      "target": 34963
    },
    {
      "buffer": 0,
      "byteLength": 33080,
      "byteOffset": 72120,
      "byteStride": 8,
      "name": "floatBufferViews",
      "target": 34962
    },
    {
      "buffer": 0,
      "byteLength": 99240,
      "byteOffset": 105200,
      "byteStride": 12,
      "name": "floatBufferViews",
      "target": 34962
    }
  ],
  "buffers": [
    {
      "byteLength": 204440,
      "uri": "scene.bin"
    }
  ],
  "images": [
    {
      "uri": "textures/lambert4_baseColor.jpeg"
    },
    {
      "uri": "textures/lambert1_baseColor.jpeg"
    }
  ],
  "materials": [
    {
      "doubleSided": true,
      "name": "lambert4",
      "pbrMetallicRoughness": {
        "baseColorTexture": {
          "index": 0
        },
        "metallicFactor": 0.0,
        "roughnessFactor": 0.6
      }
    },
    {
      "doubleSided": true,
      "name": "lambert1",
      "pbrMetallicRoughness": {
        "baseColorTexture": {
          "index": 1
        },
        "metallicFactor": 0.0,
        "roughnessFactor": 0.6
      }
    }
  ],
  "meshes": [
    {
      "name": "axe:pCube3_lambert4_0",
      "primitives": [
        {
          "attributes": {
            "NORMAL": 1,
            "POSITION": 0,
            "TEXCOORD_0": 2
          },
          "indices": 3,
          "material": 0,
          "mode": 4
        }
      ]
    },
    {
      "name": "polySurface10_lambert1_0",
      "primitives": [
        {
          "attributes": {
            "NORMAL": 5,
            "POSITION": 4,
            "TEXCOORD_0": 6
          },
          "indices": 7,
          "material": 1,
          "mode": 4
        }
      ]
    }
  ],
  "nodes": [
    {
      "children": [
        1
      ],
      "matrix": [
        1.0,
        0.0,
        0.0,
        0.0,
        0.0,
        2.220446049250313e-16,
        -1.0,
        0.0,
        0.0,
        1.0,
        2.220446049250313e-16,
        0.0,
        0.0,
        0.0,
        0.0,
        1.0
      ],
      "name": "Sketchfab_model"
    },
    {
      "children": [
        2
      ],
      "matrix": [
        1.0,
        0.0,
        0.0,
        0.0,
        0.0,
        0.0,
        1.0,
        0.0,
        0.0,
        -1.0,
        0.0,
        0.0,
        0.0,
        0.0,
        0.0,
        1.0
      ],
      "name": "1796b73df72d48ceb39a1993670ea86e.fbx"
    },
    {
      "children": [
        3,
        5,
        7
      ],
      "name": "RootNode"
    },
    {
      "children": [
        4
      ],
      "matrix": [
        0.0,
        1.0,
        -3.3306690738754696e-16,
        0.0,
        -1.1102230246251565e-16,
        2.220446049250313e-16,
        1.0,
        0.0,
        1.0,
        -1.1102230246251565e-16,
        0.0,
        0.0,
        2.266796588897705,
        -1000.0999755859375,
        0.29762813448905945,
        1.0
      ],
      "name": "bottom"
    },
    {
      "name": "Object_4"
    },
    {
      "children": [
        6
      ],
      "matrix": [
        -0.3154675418826596,
        0.07286869312026444,
        1.929021389921861,
        0.0,
        0.648380697740782,
        1.8450569591456571,
        0.03633768704757305,
        0.0,
        -1.8182507637865302,
        0.645296916361558,
        -0.3217284397105352,
        0.0,
        -2.686654567718506,
        1.1288566589355469,
        1.1625765562057495,
        1.0
      ],
      "name": "axe:pCube3"
    },
    {
      "mesh": 0,
      "name": "axe:pCube3_lambert4_0"
    },
    {
      "children": [
        8
      ],
      "name": "polySurface10"
    },
    {
      "mesh": 1,
      "name": "polySurface10_lambert1_0"
    }
  ],
  "samplers": [
    {
      "magFilter": 9729,
      "minFilter": 9987,
      "wrapS": 10497,
      "wrapT": 10497
    }
  ],
  "scene": 0,
  "scenes": [
    {
      "name": "Sketchfab_Scene",
      "nodes": [
        0
      ]
    }
  ],
  "textures": [
    {
      "sampler": 0,
      "source": 0
    },
    {
      "sampler": 0,
      "source": 1
    }
  ]
}
